<?xml version="1.0" standalone="no"?>
<!DOCTYPE svg PUBLIC "-//W3C//DTD SVG 20010904//EN"
 "http://www.w3.org/TR/2001/REC-SVG-20010904/DTD/svg10.dtd">
<svg version="1.0" xmlns="http://www.w3.org/2000/svg"
 width="512.000000pt" height="512.000000pt" viewBox="0 0 512.000000 512.000000"
 preserveAspectRatio="xMidYMid meet">

<g transform="translate(0.000000,512.000000) scale(0.100000,-0.100000)"
fill="#000000" stroke="none">
<path d="M2750 4985 c-431 -69 -816 -350 -1013 -741 -85 -170 -133 -358 -143
-569 l-7 -130 -211 0 c-195 0 -219 -2 -316 -27 -262 -66 -464 -178 -647 -359
-195 -193 -317 -412 -381 -682 -22 -98 -26 -134 -26 -287 -1 -196 11 -272 69
-447 133 -399 459 -725 860 -858 277 -93 594 -92 875 1 177 59 357 168 501
303 l87 80 12 -62 c29 -154 114 -352 213 -497 66 -97 251 -281 348 -347 42
-29 116 -72 165 -97 307 -154 665 -187 999 -91 123 35 332 140 436 219 271
205 459 506 526 843 24 122 24 386 0 505 -100 499 -454 899 -930 1050 l-97 31
20 31 c176 268 251 534 237 845 -11 228 -69 428 -183 622 -30 52 -54 81 -72
88 -50 21 -102 -14 -102 -69 0 -11 20 -55 45 -98 230 -398 216 -906 -37 -1282
-73 -109 -68 -106 -191 -102 l-108 3 58 62 c137 146 228 334 264 541 17 100 7
331 -19 428 -83 311 -311 578 -599 703 -153 66 -227 80 -423 80 -204 -1 -282
-17 -437 -90 -304 -143 -510 -398 -590 -727 -14 -55 -18 -112 -17 -233 1 -138
4 -173 26 -256 111 -415 460 -725 878 -781 l88 -11 -77 -73 c-88 -85 -79 -84
-250 -28 -371 122 -655 406 -775 776 -46 141 -60 230 -59 383 0 331 125 629
361 862 442 440 1155 469 1635 68 96 -81 117 -87 157 -47 45 45 39 67 -32 137
-166 161 -443 291 -700 329 -126 19 -301 19 -418 1z m435 -483 c340 -94 587
-354 656 -687 97 -469 -189 -929 -656 -1056 -116 -32 -325 -32 -445 0 -323 85
-572 337 -652 659 -31 124 -31 313 1 431 93 352 370 606 728 671 79 15 289 5
368 -18z m-1601 -1119 c26 -8 30 -17 50 -96 12 -48 21 -87 20 -87 -2 0 -36 7
-76 16 -98 22 -319 22 -414 1 -401 -90 -703 -374 -810 -762 -31 -113 -42 -303
-25 -426 80 -554 615 -963 1162 -890 152 20 332 79 389 128 37 30 41 82 10
113 -28 28 -54 25 -146 -15 -254 -110 -515 -108 -753 6 -307 146 -498 428
-518 764 -14 253 77 493 257 675 96 97 170 149 280 197 117 50 184 65 323 70
139 6 206 -3 328 -43 l76 -25 43 -72 c93 -156 220 -297 371 -410 l76 -57 17
-72 c68 -278 -5 -582 -193 -803 -59 -68 -65 -102 -26 -140 49 -50 90 -29 182
93 155 206 221 420 211 687 -3 74 -5 135 -4 135 1 0 38 -13 82 -29 l79 -29 9
-44 c8 -39 6 -49 -19 -89 -95 -150 -169 -389 -182 -589 -6 -92 -7 -96 -48
-150 -66 -86 -207 -215 -302 -277 -105 -69 -230 -124 -361 -160 -89 -24 -113
-27 -292 -27 -131 -1 -213 3 -250 12 -267 65 -461 173 -635 354 -226 234 -339
516 -339 843 1 206 37 363 125 540 171 346 493 586 884 659 86 17 364 16 419
-1z m2396 -699 c775 -147 1209 -1001 870 -1711 -168 -354 -469 -591 -862 -680
-106 -24 -365 -23 -478 1 -373 79 -682 317 -850 655 -102 204 -146 448 -121
668 57 486 382 885 841 1031 83 26 135 37 275 56 54 8 242 -4 325 -20z"/>
<path d="M2909 4292 c-71 -24 -134 -67 -192 -132 -62 -69 -100 -137 -136 -245
l-30 -90 -45 -3 c-35 -2 -50 -9 -66 -29 -23 -29 -24 -42 -9 -76 13 -28 48 -47
84 -47 22 0 25 -4 25 -40 0 -39 -1 -40 -35 -40 -25 0 -44 -8 -60 -25 -51 -50
-17 -122 61 -127 l46 -3 22 -70 c59 -187 159 -315 295 -378 56 -27 77 -31 147
-31 74 0 89 3 157 37 77 38 178 132 198 184 19 51 -17 103 -72 103 -20 0 -39
-14 -77 -58 -122 -141 -264 -152 -383 -30 -36 37 -108 169 -124 226 l-6 22
255 0 255 0 21 27 c26 33 21 79 -11 106 -19 15 -48 17 -280 17 l-259 0 0 40 0
40 250 0 c264 0 289 4 309 47 16 34 14 47 -10 77 l-20 26 -248 0 c-136 0 -250
3 -254 6 -10 10 40 131 79 190 48 72 111 120 178 135 85 19 143 -6 233 -98 39
-40 78 -73 87 -73 31 0 65 23 77 52 11 26 10 35 -6 64 -28 53 -138 152 -200
180 -75 35 -179 41 -256 16z"/>
<path d="M1310 2950 c-16 -16 -20 -33 -20 -80 0 -51 -3 -60 -18 -60 -35 0
-122 -52 -162 -97 -52 -60 -80 -136 -80 -221 0 -122 62 -209 195 -274 l65 -32
0 -239 0 -240 -41 7 c-22 4 -71 23 -109 42 -63 33 -70 35 -96 22 -38 -18 -57
-58 -44 -92 18 -49 178 -126 261 -126 29 0 29 -1 29 -56 0 -30 5 -64 11 -75
15 -29 57 -42 90 -29 34 14 49 48 49 111 0 38 4 51 18 56 156 53 253 159 282
311 22 111 -16 228 -98 304 -38 35 -73 54 -174 96 l-28 12 0 186 0 186 28 -7
c15 -3 43 -17 63 -31 43 -29 68 -30 103 -3 36 28 36 81 0 114 -30 28 -93 59
-152 74 -42 12 -42 12 -42 60 0 64 -28 101 -76 101 -21 0 -42 -8 -54 -20z
m-20 -445 c0 -80 -3 -145 -8 -145 -19 0 -84 54 -93 76 -22 61 -2 144 47 189
51 47 54 39 54 -120z m221 -414 c57 -35 79 -80 79 -158 0 -76 -44 -153 -107
-190 l-43 -25 0 201 c0 159 3 201 13 201 7 0 33 -13 58 -29z"/>
<path d="M3559 2524 c-433 -78 -778 -434 -849 -876 -18 -109 -8 -311 19 -415
103 -397 417 -694 823 -777 96 -20 291 -21 390 -2 252 48 487 193 645 399 244
317 282 764 94 1124 -151 288 -430 492 -750 548 -102 18 -270 18 -372 -1z
m346 -149 c342 -60 623 -319 716 -660 31 -114 32 -335 1 -450 -102 -377 -433
-650 -818 -672 -425 -25 -794 238 -921 654 -23 78 -26 104 -27 238 0 124 4
164 22 230 126 458 565 740 1027 660z"/>
<path d="M3335 2148 c-30 -16 -45 -39 -45 -67 0 -17 61 -117 170 -281 93 -140
170 -258 170 -262 0 -5 -67 -8 -148 -8 -142 0 -149 -1 -170 -23 -27 -29 -28
-67 -3 -98 19 -23 24 -24 190 -27 l171 -3 0 -40 0 -39 -155 0 c-120 0 -163 -4
-185 -15 -32 -17 -46 -51 -36 -91 11 -43 56 -54 223 -54 l148 0 0 -136 0 -136
28 -24 c37 -32 62 -30 98 5 l29 29 0 131 0 131 145 0 c165 0 210 11 221 54 10
40 -4 74 -36 91 -22 11 -64 15 -180 15 l-150 0 0 39 0 40 166 3 c160 3 166 4
185 27 22 28 25 69 5 97 -13 17 -31 20 -171 24 l-157 5 171 258 c180 273 191
297 151 337 -28 28 -81 26 -107 -2 -12 -13 -88 -126 -171 -252 l-150 -230
-162 246 c-173 264 -193 285 -245 256z"/>
<path d="M1285 4715 c-14 -13 -25 -33 -25 -44 0 -22 144 -491 160 -521 23 -44
105 -36 128 12 11 24 4 53 -67 285 -84 269 -96 293 -148 293 -13 0 -35 -11
-48 -25z"/>
<path d="M803 4408 c-26 -12 -47 -59 -39 -85 3 -10 95 -107 204 -216 211 -210
224 -218 273 -178 16 13 23 29 23 55 0 35 -12 49 -194 231 -119 118 -205 196
-220 199 -14 3 -35 0 -47 -6z"/>
<path d="M465 3895 c-32 -31 -33 -75 -2 -102 13 -12 121 -51 272 -97 208 -64
255 -75 277 -67 50 19 62 74 26 114 -18 19 -80 43 -270 101 -136 42 -254 76
-263 76 -9 0 -27 -11 -40 -25z"/>
</g>
</svg>
